<svg width="24" height="24" viewBox="0 0 24 24" fill="none" xmlns="http://www.w3.org/2000/svg">
<path d="M12.9697 6.96967L7.93934 12L12.9697 17.0303C13.2626 17.3232 13.7374 17.3232 14.0303 17.0303C14.3232 16.7374 14.3232 16.2626 14.0303 15.9697L10.0607 12L14.0303 8.03033C14.3232 7.73744 14.3232 7.26256 14.0303 6.96967C13.7374 6.67678 13.2626 6.67678 12.9697 6.96967Z" fill="#009688"/>
<path fill-rule="evenodd" clip-rule="evenodd" d="M21 12C21 16.9706 16.9706 21 12 21C7.02944 21 3 16.9706 3 12C3 7.02944 7.02944 3 12 3C16.9706 3 21 7.02944 21 12ZM19.5 12C19.5 16.1421 16.1421 19.5 12 19.5C7.85786 19.5 4.5 16.1421 4.5 12C4.5 7.85786 7.85786 4.5 12 4.5C16.1421 4.5 19.5 7.85786 19.5 12Z" fill="#009688"/>
</svg>
