<svg width="24" height="24" viewBox="0 0 24 24" fill="none" xmlns="http://www.w3.org/2000/svg">
<path fill-rule="evenodd" clip-rule="evenodd" d="M13.125 4.80769C13.125 4.83591 13.1238 4.86387 13.1215 4.89154C16.2444 5.38538 17.3952 8.00111 17.3952 11.1538C17.3952 12.5563 17.583 14.6582 18.1526 15.6631L18.6731 16.5815C18.9123 17.0035 18.5645 17.4999 18.0297 17.4999H5.97029C5.43553 17.4999 5.08772 17.0035 5.32687 16.5815L5.84741 15.6631C6.66006 14.2293 6.64537 13.5066 6.61695 12.1084C6.61114 11.8224 6.60475 11.5082 6.60475 11.1538C6.60475 8.00111 7.75558 5.38538 10.8785 4.89154C10.8762 4.86387 10.875 4.83591 10.875 4.80769C10.875 4.22354 11.3787 3.75 12 3.75C12.6213 3.75 13.125 4.22354 13.125 4.80769ZM11.1128 6.37313L12 6.23283L12.8872 6.37313C14.02 6.55226 14.7036 7.07785 15.1495 7.80768C15.6318 8.59702 15.8952 9.73325 15.8952 11.1538C15.8952 11.9126 15.9455 12.8609 16.0754 13.7698C16.1778 14.4861 16.3463 15.3069 16.6478 15.9999H7.37018C7.70597 15.3453 7.91505 14.7547 8.02476 14.1331C8.14495 13.452 8.13134 12.7917 8.11809 12.1483L8.11664 12.0779C8.11081 11.7911 8.10475 11.491 8.10475 11.1538C8.10475 9.73325 8.36821 8.59702 8.85051 7.80768C9.29645 7.07785 9.97999 6.55226 11.1128 6.37313Z" fill="white"/>
<path d="M11.9998 20.2505C12.9318 20.2505 13.6873 19.4734 13.6873 18.5148C13.6873 18.3844 13.6733 18.2573 13.6468 18.1351H10.3528C10.3263 18.2573 10.3123 18.3844 10.3123 18.5148C10.3123 19.4734 11.0678 20.2505 11.9998 20.2505Z" fill="white"/>
</svg>
