<svg width="38" height="36" viewBox="0 0 38 36" fill="none" xmlns="http://www.w3.org/2000/svg">
<g clip-path="url(#clip0_181_5967)">
<path d="M29.5541 11.6465C29.5541 12.5239 29.1991 13.3162 28.628 13.8942C28.0543 14.4671 27.2619 14.8233 26.3872 14.8233H16.8866V36H10.5528V14.8233H0.859253L5.0809 8.46973H26.3872C28.1366 8.46973 29.5541 9.89166 29.5541 11.6465Z" fill="white"/>
<path d="M28.0543 23.1742L38 36H29.5567L19.0013 23.2929V16.9394H26.3898C29.3046 16.9394 31.6662 14.5703 31.6662 11.6465C31.6662 10.1832 31.0745 8.85935 30.1201 7.90194C29.1657 6.94452 27.8485 6.35097 26.3872 6.35097H5.0809L0 0H26.3898C32.8008 0 37.9974 5.21548 37.9974 11.6465C37.9974 17.5123 33.6754 22.3613 28.0517 23.1742H28.0543Z" fill="white"/>
</g>
<defs>
<clipPath id="clip0_181_5967">
<rect width="38" height="36" fill="white"/>
</clipPath>
</defs>
</svg>
